{"title":"Arabic 8 Arabian - Iranian Porn Reality Sex Arab Beauty=MTR","uid":7069892,"size":199635490,"categoryP":"porn","categoryS":"other","magnet":"?xt=urn:btih:6cd81e5aa3319837830e490faa92be54c073b895&amp;dn=Arabic+8+Arabian+-+Iranian+Porn+Reality+Sex+Arab+Beauty%3DMTR&amp;tr=udp%3A%2F%2Ftracker.openbittorrent.com%3A80&amp;tr=udp%3A%2F%2Fopen.demonii.com%3A1337&amp;tr=udp%3A%2F%2Ftracker.coppersurfer.tk%3A6969&amp;tr=udp%3A%2F%2Fexodus.desync.com%3A6969","seeders":11,"leechers":2,"uploader":"Devdeep","files":17,"time":1330625138,"description":"General Info..........\n\n\nComplete name                    : Arabic 8 Arabian - Iranian Porn Reality Sex Arab Beauty=MTR=.mpg\nFormat                           : MPEG-PS\nFile size                        : 188 MiB\nDuration                         : 18mn 52s\nOverall bit rate                 : 1 395 Kbps\n\nVideo\nID                               : 224 (0xE0)\nFormat                           : MPEG Video\nFormat version                   : Version 1\nFormat settings, BVOP            : Yes\nFormat settings, Matrix          : Default\nDuration                         : 18mn 52s\nBit rate mode                    : Constant\nBit rate                         : 1 150 Kbps\nWidth                            : 352 pixels\nHeight                           : 288 pixels\nDisplay aspect ratio             : 4:3\nFrame rate                       : 25.000 fps\nStandard                         : PAL\nColor space                      : YUV\nBit depth                        : 8 bits\nScan type                        : Progressive\nCompression mode                 : Lossy\nBits/(Pixel*Frame)               : 0.454\nStream size                      : 154 MiB (82%)\n\nAudio\nID                               : 192 (0xC0)\nFormat                           : MPEG Audio\nFormat version                   : Version 1\nFormat profile                   : Layer 2\nDuration                         : 18mn 52s\nBit rate mode                    : Constant\nBit rate                         : 224 Kbps\nChannel(s)                       : 2 channels\nSampling rate                    : 44.1 KHz\nCompression mode                 : Lossy\nStream size                      : 30.2 MiB (16%)\n\n","torrent":{"xt":"urn:btih:6cd81e5aa3319837830e490faa92be54c073b895","amp;dn":"Arabic+8+Arabian+-+Iranian+Porn+Reality+Sex+Arab+Beauty%3DMTR","amp;tr":["udp%3A%2F%2Ftracker.openbittorrent.com%3A80","udp%3A%2F%2Fopen.demonii.com%3A1337","udp%3A%2F%2Ftracker.coppersurfer.tk%3A6969","udp%3A%2F%2Fexodus.desync.com%3A6969"],"infoHash":"6cd81e5aa3319837830e490faa92be54c073b895","infoHashBuffer":{"type":"Buffer","data":[108,216,30,90,163,49,152,55,131,14,73,15,170,146,190,84,192,115,184,149]},"announce":[],"urlList":[]}}